<svg xmlns="http://www.w3.org/2000/svg" width="72" height="72" viewBox="0 0 72 72"><defs><style>.a,.c{fill:none;}.a{stroke:#707070;}.b{stroke:none;}</style></defs><g class="a"><circle class="b" cx="36" cy="36" r="36"/><circle class="c" cx="36" cy="36" r="35.5"/></g><path d="M36.4,14H17.023A3.023,3.023,0,0,0,14,17.016V36.409a3.023,3.023,0,0,0,3.023,3.016H36.4a3.023,3.023,0,0,0,3.023-3.016V17.016A3.023,3.023,0,0,0,36.4,14Zm-3.333,3.178h2.38a.791.791,0,0,1,.8.791v2.387a.791.791,0,0,1-.8.791h-2.38a.8.8,0,0,1-.8-.791V17.969A.8.8,0,0,1,33.068,17.178ZM26.712,21.86a4.88,4.88,0,1,1-4.859,4.852,4.88,4.88,0,0,1,4.859-4.852Zm9.534,15.184H17.178a.805.805,0,0,1-.8-.8V24.325h3.178a4.944,4.944,0,0,0-.551,2.387,7.769,7.769,0,0,0,15.474,0,4.061,4.061,0,0,0-.614-2.415h3.178V36.246A.8.8,0,0,1,36.246,37.044Z" transform="translate(9 9)"/></svg>