<svg xmlns="http://www.w3.org/2000/svg" width="72" height="72" viewBox="0 0 72 72"><defs><style>.a,.c{fill:none;}.a{stroke:#707070;}.b{stroke:none;}</style></defs><g class="a"><circle class="b" cx="36" cy="36" r="36"/><circle class="c" cx="36" cy="36" r="35.5"/></g><path d="M23.185,4.622c-8.807,0-13.248,6.314-13.248,11.58,0,3.188,1.207,6.024,3.8,7.08a.638.638,0,0,0,.928-.463c.086-.324.288-1.145.379-1.488a.9.9,0,0,0-.267-1.033,5.343,5.343,0,0,1-1.224-3.635,8.779,8.779,0,0,1,9.127-8.878c4.978,0,7.713,3.042,7.713,7.1,0,5.345-2.365,9.856-5.876,9.856a2.869,2.869,0,0,1-2.926-3.57c.557-2.349,1.636-4.882,1.636-6.578a2.482,2.482,0,0,0-2.5-2.782c-1.982,0-3.575,2.051-3.575,4.8a7.132,7.132,0,0,0,.591,2.933s-2.028,8.6-2.384,10.1a20.793,20.793,0,0,0-.055,7.043.247.247,0,0,0,.441.108,19.789,19.789,0,0,0,3.346-6.067c.228-.824,1.3-5.094,1.3-5.094a5.313,5.313,0,0,0,4.529,2.309c5.958,0,10-5.432,10-12.7C34.919,9.742,30.262,4.622,23.185,4.622Z" transform="translate(14.063 17.89)"/></svg>