<svg xmlns="http://www.w3.org/2000/svg" width="72" height="72" viewBox="0 0 72 72"><defs><style>.a,.c{fill:none;}.a{stroke:#707070;}.b{stroke:none;}</style></defs><g class="a"><circle class="b" cx="36" cy="36" r="36"/><circle class="c" cx="36" cy="36" r="35.5"/></g><g transform="translate(-228.781 -4188.28)"><rect width="5.276" height="16.985" transform="translate(252.219 4219.728)"/><path d="M17.049,20.12A3.065,3.065,0,1,1,20.1,17.055,3.065,3.065,0,0,1,17.049,20.12Z" transform="translate(237.812 4197.291)"/><path d="M43.167,42.775H37.9V34.519c0-1.97,0-4.506-2.74-4.506S32,32.132,32,34.378v8.4H26.74V25.825h5.05v2.324h.078a5.537,5.537,0,0,1,4.986-2.74c5.332,0,6.356,3.531,6.356,8.086Z" transform="translate(234.06 4193.938)"/></g></svg>